# xmcd CD database file
#
# Track frame offsets:
#	180
#	11517
#	23345
#	37206
#	54375
#	65575
#	75672
#	88536
#	99169
#	110672
#	126582
#	140438
#	154072
#	165018
#	179065
#	191632
#	201631
#	212406
#	223957
#	236967
#
# Disc length: 3310 seconds
#
# Revision: 2
# Processed by: cddbd v1.5.1PL0 Copyright (c) Steve Scherf et al.
# Submitted via: CDex 1.51
#
DISCID=1f0cec14
DTITLE=Various Artist - Country Greats (The Sound Of Nashville) [CD4]
DYEAR=1996
DGENRE=Country
TTITLE0=Roy Dursky - Blue Eyes Cryin' In The Rain
TTITLE1=Billie Jo Spears - Ease The Want In Me
TTITLE2=Johnny Paycheck - Almost Persuaded
TTITLE3=Kenny Rogers and The First Edition - Something's Burining
TTITLE4=Patsy Cline - Just Out Of Reach
TTITLE5=Jim Reeves - He'll Have To Go (Live)
TTITLE6=Faron Young - Apartment No 9
TTITLE7=Waylon Jennings - Dream Baby
TTITLE8=Boxcar Willie - Dixie
TTITLE9=Boxcar Willie - Old Kentucky Home
TTITLE10=Freddy Fender - Baby I Want To Love You
TTITLE11=George Jones - Things Have To Gone To Pieces
TTITLE12=Stonewall Jackson - Should I Go Home
TTITLE13=Johnny Paycheck - Someone To Give My Love To
TTITLE14=Willie Nelson - The Shelter Of Your Arms
TTITLE15=Micky Gilley - Night After Night
TTITLE16=Faron Young - Once A Day
TTITLE17=Patsy Cline - Never No More
TTITLE18=Freddy Fender - Going Out With The Tide
TTITLE19=Jim Reeves - Am I Losing You (Live)
EXTD=YEAR: 1996
EXTT0=
EXTT1=
EXTT2=
EXTT3=
EXTT4=
EXTT5=
EXTT6=
EXTT7=
EXTT8=
EXTT9=
EXTT10=
EXTT11=
EXTT12=
EXTT13=
EXTT14=
EXTT15=
EXTT16=
EXTT17=
EXTT18=
EXTT19=
PLAYORDER=
